<svg width="800" height="240" viewBox="0 0 800 240" fill="none" xmlns="http://www.w3.org/2000/svg">
  <defs>
    <linearGradient id="logo-loop-grad" x1="40" y1="25" x2="215" y2="115" gradientUnits="userSpaceOnUse">
      <stop offset="0%" stop-color="#0052FF" />
      <stop offset="45%" stop-color="#00D2FF" />
      <stop offset="100%" stop-color="#00E676" />
    </linearGradient>
    <linearGradient id="logo-leg-grad" x1="115" y1="100" x2="230" y2="230" gradientUnits="userSpaceOnUse">
      <stop offset="0%" stop-color="#FFB300" />
      <stop offset="50%" stop-color="#FF5722" />
      <stop offset="100%" stop-color="#F44336" />
    </linearGradient>
    <linearGradient id="logo-arrow-grad" x1="75" y1="90" x2="150" y2="90" gradientUnits="userSpaceOnUse">
      <stop offset="0%" stop-color="#0043CC" />
      <stop offset="100%" stop-color="#0066FF" />
    </linearGradient>
    <linearGradient id="logo-text-tools" x1="495" y1="0" x2="760" y2="0" gradientUnits="userSpaceOnUse">
      <stop offset="0%" stop-color="#0066FF" />
      <stop offset="25%" stop-color="#00D2FF" />
      <stop offset="50%" stop-color="#00E676" />
      <stop offset="75%" stop-color="#FFB300" />
      <stop offset="100%" stop-color="#FF5722" />
    </linearGradient>
  </defs>

  <!-- Pixels -->
  <rect x="25" y="107" width="18" height="18" rx="4" fill="#00D2FF" />
  <rect x="48" y="87" width="18" height="18" rx="4" fill="#0066FF" />
  <rect x="25" y="133" width="18" height="18" rx="4" fill="#00A3FF" />
  <rect x="48" y="113" width="18" height="18" rx="4" fill="#00E676" />
  <rect x="48" y="138" width="18" height="18" rx="4" fill="#FFB300" />
  <rect x="71" y="123" width="18" height="18" rx="4" fill="#FF5722" />
  <rect x="48" y="164" width="18" height="18" rx="4" fill="#F44336" />

  <!-- R Loop -->
  <path d="M79 62C79 45.1553 92.6553 31.5 109.5 31.5H186C211.129 31.5 231.5 51.8705 231.5 77C231.5 102.129 211.129 122.5 186 122.5H140L100.5 123.775C88.626 123.775 79 114.149 79 102.275V62Z" fill="url(#logo-loop-grad)"/>

  <!-- R Leg -->
  <path d="M135 112L206 208.5C212.35 217.4 225.05 218.65 235.2 211C242.8 204.65 241.55 193.25 232.65 184.35L170.5 107H135Z" fill="url(#logo-leg-grad)"/>

  <!-- Center Arrow -->
  <path d="M110 71.5L161 89.5L110 107.5L125.5 89.5L110 71.5Z" fill="url(#logo-arrow-grad)"/>

  <!-- Text "Rovo" -->
  <text x="265" y="125" font-family="Inter, system-ui, sans-serif" font-weight="800" font-size="88" fill="#0F172A">Rovo</text>

  <!-- Text "Tools" -->
  <text x="495" y="125" font-family="Inter, system-ui, sans-serif" font-weight="800" font-size="88" fill="url(#logo-text-tools)">Tools</text>

  <!-- Tagline -->
  <text x="268" y="175" font-family="Inter, system-ui, sans-serif" font-weight="500" font-size="30" fill="#475569" letter-spacing="0.5">Free Online Tools for Everyday Work</text>
</svg>
